PathFileType	4	(X/Y/Z)	../Python\running\Running06\task.trc
DataRate	CameraRate	NumFrames	NumMarkers	Units	OrigDataRate	OrigDataStartFrame	OrigNumFrames
200.000000	200.000000	4	30	mm	200.000000	156	208
Frame#	Time	C7			RBAK			CLAV			STRN			RASI			LASI			PE01			RTH1			RTH2			RTH3			RD5M			RTOE			LTH2			LTH3			LTB2			LTB3			LHEE			LTOE			LD5M			RHEE			RTB2			LPSI			RPSI			T10			RTB3			RTB1			PE03			PE02			LTH1			LTB1			
		X1	Y1	Z1	X2	Y2	Z2	X3	Y3	Z3	X4	Y4	Z4	X5	Y5	Z5	X6	Y6	Z6	X7	Y7	Z7	X8	Y8	Z8	X9	Y9	Z9	X10	Y10	Z10	X11	Y11	Z11	X12	Y12	Z12	X13	Y13	Z13	X14	Y14	Z14	X15	Y15	Z15	X16	Y16	Z16	X17	Y17	Z17	X18	Y18	Z18	X19	Y19	Z19	X20	Y20	Z20	X21	Y21	Z21	X22	Y22	Z22	X23	Y23	Z23	X24	Y24	Z24	X25	Y25	Z25	X26	Y26	Z26	X27	Y27	Z27	X28	Y28	Z28	X29	Y29	Z29	X30	Y30	Z30	

157	0.78	771.8622436523442	1347.2333984375	123.7440719604493	753.7378540039065	1256.951538085938	248.1961975097657	888.4253540039067	1248.705688476563	93.64536285400393	920.9622192382817	1050.873657226563	88.7309494018555	852.2844848632817	844.153686523438	258.2931213378907	869.885375976563	858.2427368164067	33.93680953979494	694.7138671875002	962.7649536132817	153.3620910644532	674.7916259765627	587.2908325195315	260.697967529297	659.3770141601565	513.0179443359377	236.0928192138673	707.037536621094	551.5620117187502	244.910369873047	402.6367187500002	34.1161346435547	181.8102416992188	431.8798522949221	30.525936126709	129.1036834716797	910.055297851563	569.7527465820315	12.59233760833741	956.585815429688	632.1548461914065	-1.88392722606659	938.9927368164067	251.8586730957032	-2.122282505035401	980.1233520507817	278.0222167968751	7.066073894500736	885.9622192382817	74.35799407958987	40.36898803710939	1063.748046875	53.7324028015137	42.28194427490236	1034.880493164063	51.83246994018558	-9.705917358398441	331.4824218750001	166.5623168945313	123.6780090332032	486.1188964843752	306.7298583984376	215.1046447753907	677.788024902344	932.1546020507817	106.7527084350587	676.049255371094	932.8464965820317	193.3974456787111	718.4656372070315	1058.956420898438	154.9653472900391	494.4595336914065	259.5835876464845	199.2401123046876	546.3497314453127	319.1670227050782	209.5208129882814	661.9564208984377	916.711303710938	116.1551132202149	653.8984985351565	911.1383666992192	165.9925842285157	906.7293090820317	628.3572998046877	-5.316511631011965	950.344848632813	330.4687805175782	-5.709960460662844	
158	0.785	788.7234497070317	1350.025024414063	122.8945083618165	772.831420898438	1261.06884765625	248.2828216552736	904.7021484375005	1251.947998046875	91.37700653076175	938.0595092773442	1054.599853515625	87.31912231445315	869.9161987304692	845.889526367188	258.4640502929689	887.8029174804692	862.478149414063	35.04159927368165	713.4296875000002	965.9187622070317	154.7104949951172	687.4754638671877	592.1961059570315	260.3338623046876	670.5423583984377	518.2136230468752	236.0747222900392	718.9551391601565	555.6234130859377	245.4331359863282	406.153259277344	37.12659835815431	181.0249938964844	434.8135070800784	32.04431915283205	128.5970458984376	925.4421997070317	572.7481689453127	12.3054485321045	973.1247558593755	634.8367919921877	0.1550968438386918	966.4319458007817	250.1917572021486	-1.546237945556642	1006.031677246094	278.5397949218751	7.592849731445316	922.2986450195317	72.39653015136722	42.22980880737306	1100.390747070313	54.37712860107425	45.31908035278322	1071.76611328125	51.1686820983887	-6.780963897705082	344.2925720214845	174.7493591308594	122.7317276000977	495.4201660156252	313.2852783203126	214.7902832031251	696.0058593750002	935.8541870117192	107.8328399658204	694.6314086914065	936.2647094726567	194.4631500244142	736.0565185546877	1062.104248046875	157.2556457519532	504.0686340332034	265.7752075195314	200.1243896484376	555.7339477539065	325.6334228515626	210.3664703369142	680.2792968750002	920.7133178710942	116.8654174804688	671.9822998046877	914.608276367188	166.6321563720704	923.2909545898442	631.7745361328127	-4.481151580810549	973.525268554688	329.2491149902345	-5.625106334686281	
159	0.79	805.618774414063	1352.609985351563	122.0248489379883	791.9074096679692	1264.989135742188	248.2989196777345	920.9804077148442	1254.954833984375	89.19094848632815	955.2067260742192	1058.188598632813	86.00502014160159	887.5269165039067	847.5168457031255	258.6032714843751	905.6823120117192	866.4707031250005	36.17220687866212	732.1414794921877	968.9862670898442	155.9590606689454	700.3220214843752	596.9451293945315	260.0360107421876	682.0144042968752	523.2388916015627	236.1505432128907	731.0794067382815	559.5718994140627	246.1867828369142	410.3955078125002	40.71788024902345	180.2281188964844	438.5668945312502	34.06540298461915	128.0819854736329	940.6071777343755	575.418640136719	11.82574367523194	989.3768920898442	637.1793212890627	1.898719787597657	993.2670898437505	248.8079986572267	-0.861848890781403	1031.314208984375	279.2181701660157	8.032932281494144	957.9931030273442	71.18376159667972	44.18598937988283	1136.427368164063	55.77038574218753	48.49004745483401	1108.021606445313	51.05693817138675	-3.675709724426271	357.2388305664064	182.7596130371094	121.9142761230469	505.3392333984377	319.5912475585939	214.4101104736329	714.2168579101565	939.4294433593755	108.8672332763672	713.2431640625002	939.647094726563	195.467254638672	753.6091918945315	1065.131225585938	159.3322906494141	514.1914062500002	271.7025146484376	200.913787841797	565.7385864257815	331.730926513672	211.1702575683595	698.6140747070315	924.5870971679692	117.5556869506837	690.117370605469	918.009399414063	167.2484741210938	939.614868164063	634.850036621094	-3.868018388748171	996.1654663085942	328.0897827148439	-5.459861278533937	
160	0.795	822.5411987304692	1354.968505859375	121.1369323730469	810.9546508789067	1268.680908203125	248.2554016113282	937.2660522460942	1257.704467773438	87.08966827392581	972.3966674804692	1061.620483398438	84.79102325439456	905.1105957031255	849.0310668945317	258.7106323242189	923.506469726563	870.1791381835942	37.30592727661134	750.8167114257815	971.9498901367192	157.1030578613282	713.3956298828127	601.4565429687502	259.7928466796876	693.8982543945315	527.9935302734377	236.2936248779298	743.4985351562502	563.3439941406252	247.1224975585939	415.4093322753909	44.9312210083008	179.4505462646485	443.1663818359377	36.62570190429689	127.5775985717774	955.605346679688	577.7595825195315	11.19052886962891	1005.369262695313	639.1799316406252	3.262778520584108	1019.405029296875	247.7100372314454	-0.07105819880962375	1055.910400390625	280.0471801757814	8.379183769226078	992.8796997070317	70.66486358642581	46.17216110229494	1171.712280273438	57.94073486328128	51.78032302856448	1143.512329101563	51.50583267211917	-0.4131085872650149	370.1285400390626	190.5871887207032	121.2062911987305	515.8848876953127	325.5935363769532	213.9647674560548	732.3953857421877	942.8501586914067	109.8521728515626	731.8587646484377	942.960327148438	196.4077758789064	771.109497070313	1068.012817382813	161.1786041259766	524.8018798828127	277.324188232422	201.5558319091798	576.3779296875002	337.3784179687501	211.8733825683595	716.939636230469	928.298706054688	118.2218246459962	708.288024902344	921.306030273438	167.8392181396485	955.715454101563	637.556335449219	-3.500429391860964	1018.220458984375	327.0056152343751	-5.203114032745363	
